<svg width="136" height="136" viewBox="0 0 136 136" fill="none" xmlns="http://www.w3.org/2000/svg">
<path d="M67.813 12.2258C64.5568 12.2258 61.911 9.58006 61.911 6.32377C61.911 3.06749 64.5568 0.421753 67.813 0.421753C86.3958 0.421753 103.225 7.95192 115.405 20.1317C127.585 32.3115 135.115 49.1408 135.115 67.7236C135.115 86.3063 127.585 103.136 115.405 115.315C103.225 127.495 86.3958 135.025 67.813 135.025C49.2303 135.025 32.4009 127.495 20.2211 115.315C8.05704 103.136 0.511215 86.3063 0.511215 67.7236C0.511215 64.4673 3.15695 61.8216 6.41324 61.8216C9.66952 61.8216 12.3153 64.4673 12.3153 67.7236C12.3153 83.05 18.5304 96.9206 28.5654 106.971C38.6004 117.006 52.4866 123.221 67.813 123.221C83.1395 123.221 97.01 117.006 107.061 106.971C117.096 96.9362 123.311 83.05 123.311 67.7236C123.311 52.3971 117.096 38.5266 107.061 28.4759C97.0257 18.4409 83.1395 12.2258 67.813 12.2258Z" fill="#B5B6B7"/>
</svg>
