<svg width="13" height="12" viewBox="0 0 13 12" fill="none" xmlns="http://www.w3.org/2000/svg">
<path d="M1.3 1.33333H3.25L4.55 0H8.45L9.75 1.33333H11.7C12.0448 1.33333 12.3754 1.47381 12.6192 1.72386C12.863 1.97391 13 2.31304 13 2.66667V10.6667C13 11.0203 12.863 11.3594 12.6192 11.6095C12.3754 11.8595 12.0448 12 11.7 12H1.3C0.955218 12 0.624558 11.8595 0.380761 11.6095C0.136964 11.3594 0 11.0203 0 10.6667V2.66667C0 2.31304 0.136964 1.97391 0.380761 1.72386C0.624558 1.47381 0.955218 1.33333 1.3 1.33333ZM6.5 3.33333C5.63805 3.33333 4.8114 3.68452 4.2019 4.30964C3.59241 4.93477 3.25 5.78261 3.25 6.66667C3.25 7.55072 3.59241 8.39857 4.2019 9.02369C4.8114 9.64881 5.63805 10 6.5 10C7.36195 10 8.1886 9.64881 8.7981 9.02369C9.40759 8.39857 9.75 7.55072 9.75 6.66667C9.75 5.78261 9.40759 4.93477 8.7981 4.30964C8.1886 3.68452 7.36195 3.33333 6.5 3.33333ZM6.5 4.66667C7.01717 4.66667 7.51316 4.87738 7.87886 5.25245C8.24455 5.62753 8.45 6.13623 8.45 6.66667C8.45 7.1971 8.24455 7.70581 7.87886 8.08088C7.51316 8.45595 7.01717 8.66667 6.5 8.66667C5.98283 8.66667 5.48684 8.45595 5.12114 8.08088C4.75545 7.70581 4.55 7.1971 4.55 6.66667C4.55 6.13623 4.75545 5.62753 5.12114 5.25245C5.48684 4.87738 5.98283 4.66667 6.5 4.66667Z" fill="white"/>
</svg>
