<svg width="14" height="14" viewBox="0 0 14 14" fill="none" xmlns="http://www.w3.org/2000/svg">
<rect width="14" height="14" rx="2" fill="#575757"/>
<path fill-rule="evenodd" clip-rule="evenodd" d="M6.42857 11.375C6.42857 11.5408 6.36837 11.6997 6.2612 11.8169C6.15404 11.9342 6.0087 12 5.85714 12C5.70559 12 5.56025 11.9342 5.45308 11.8169C5.34592 11.6997 5.28571 11.5408 5.28571 11.375V4.5C5.28571 4.33424 5.34592 4.17527 5.45308 4.05806C5.56025 3.94085 5.70559 3.875 5.85714 3.875C6.0087 3.875 6.15404 3.94085 6.2612 4.05806C6.36837 4.17527 6.42857 4.33424 6.42857 4.5V11.375ZM4.14286 11.375C4.14286 11.5408 4.08265 11.6997 3.97549 11.8169C3.86833 11.9342 3.72298 12 3.57143 12C3.41988 12 3.27453 11.9342 3.16737 11.8169C3.0602 11.6997 3 11.5408 3 11.375V7C3 6.83424 3.0602 6.67527 3.16737 6.55806C3.27453 6.44085 3.41988 6.375 3.57143 6.375C3.72298 6.375 3.86833 6.44085 3.97549 6.55806C4.08265 6.67527 4.14286 6.83424 4.14286 7V11.375ZM7.57143 11.375V5.75C7.57143 5.58424 7.63163 5.42527 7.7388 5.30806C7.84596 5.19085 7.9913 5.125 8.14286 5.125C8.29441 5.125 8.43975 5.19085 8.54692 5.30806C8.65408 5.42527 8.71429 5.58424 8.71429 5.75V11.375C8.71429 11.5408 8.65408 11.6997 8.54692 11.8169C8.43975 11.9342 8.29441 12 8.14286 12C7.9913 12 7.84596 11.9342 7.7388 11.8169C7.63163 11.6997 7.57143 11.5408 7.57143 11.375ZM9.85714 2.625C9.85714 2.45924 9.91735 2.30027 10.0245 2.18306C10.1317 2.06585 10.277 2 10.4286 2C10.5801 2 10.7255 2.06585 10.8326 2.18306C10.9398 2.30027 11 2.45924 11 2.625V11.375C11 11.5408 10.9398 11.6997 10.8326 11.8169C10.7255 11.9342 10.5801 12 10.4286 12C10.277 12 10.1317 11.9342 10.0245 11.8169C9.91735 11.6997 9.85714 11.5408 9.85714 11.375V2.625Z" fill="#F9F6ED"/>
</svg>
