<svg width="16" height="20" viewBox="0 0 16 20" fill="none" xmlns="http://www.w3.org/2000/svg">
<path d="M6.14035 18.193H9.64912C9.64912 18.6583 9.46429 19.1045 9.13528 19.4335C8.80626 19.7625 8.36003 19.9474 7.89474 19.9474C7.42945 19.9474 6.98321 19.7625 6.6542 19.4335C6.32519 19.1045 6.14035 18.6583 6.14035 18.193ZM15.6078 16.2569C15.7241 16.3732 15.7895 16.531 15.7895 16.6955C15.7895 17.0381 15.5118 17.3158 15.1692 17.3158H0.620268C0.277703 17.3158 0 17.0381 0 16.6955C0 16.531 0.0653495 16.3732 0.181672 16.2569L1.46149 14.9771C1.64903 14.7896 1.75439 14.5352 1.75439 14.27V9.42104C1.75439 6.70174 3.53509 4.30701 6.14035 3.53508V3.28069C6.14035 2.8154 6.32519 2.36916 6.6542 2.04015C6.98321 1.71114 7.42945 1.52631 7.89474 1.52631C8.36003 1.52631 8.80626 1.71114 9.13528 2.04015C9.46429 2.36916 9.64912 2.8154 9.64912 3.28069V3.53508C12.2544 4.30701 14.0351 6.70174 14.0351 9.42104V14.27C14.0351 14.5352 14.1404 14.7896 14.328 14.9771L15.6078 16.2569ZM12.2807 9.42104C12.2807 8.25781 11.8186 7.14222 10.9961 6.3197C10.1736 5.49717 9.05797 5.03508 7.89474 5.03508C6.73151 5.03508 5.61592 5.49717 4.79339 6.3197C3.97086 7.14222 3.50877 8.25781 3.50877 9.42104V14.5614C3.50877 15.1137 3.95649 15.5614 4.50877 15.5614H12.2807V9.42104Z" fill="white"/>
<rect x="13.3684" width="2" height="2" rx="1" fill="#FF7456"/>
</svg>
