<svg width="19" height="19" viewBox="0 0 19 19" fill="none" xmlns="http://www.w3.org/2000/svg">
<path fill-rule="evenodd" clip-rule="evenodd" d="M12.9545 6.90909C12.9545 7.82529 12.5906 8.70397 11.9427 9.35182C11.2949 9.99968 10.4162 10.3636 9.5 10.3636C8.5838 10.3636 7.70512 9.99968 7.05727 9.35182C6.40942 8.70397 6.04546 7.82529 6.04546 6.90909C6.04546 5.99289 6.40942 5.11421 7.05727 4.46636C7.70512 3.8185 8.5838 3.45454 9.5 3.45454C10.4162 3.45454 11.2949 3.8185 11.9427 4.46636C12.5906 5.11421 12.9545 5.99289 12.9545 6.90909ZM11.2273 6.90909C11.2273 7.36719 11.0453 7.80653 10.7214 8.13046C10.3974 8.45438 9.9581 8.63636 9.5 8.63636C9.0419 8.63636 8.60256 8.45438 8.27864 8.13046C7.95471 7.80653 7.77273 7.36719 7.77273 6.90909C7.77273 6.45099 7.95471 6.01165 8.27864 5.68772C8.60256 5.3638 9.0419 5.18182 9.5 5.18182C9.9581 5.18182 10.3974 5.3638 10.7214 5.68772C11.0453 6.01165 11.2273 6.45099 11.2273 6.90909Z" fill="white"/>
<path fill-rule="evenodd" clip-rule="evenodd" d="M9.5 0C4.25341 0 0 4.25341 0 9.5C0 14.7466 4.25341 19 9.5 19C14.7466 19 19 14.7466 19 9.5C19 4.25341 14.7466 0 9.5 0ZM1.72727 9.5C1.72727 11.305 2.34305 12.9666 3.37509 14.2863C4.09988 13.3345 5.03491 12.5631 6.10715 12.0325C7.17938 11.5018 8.35978 11.2262 9.55614 11.2273C10.737 11.2262 11.9026 11.4946 12.964 12.0121C14.0254 12.5297 14.9547 13.2827 15.681 14.2137C16.4293 13.2323 16.9332 12.0868 17.1509 10.872C17.3685 9.65715 17.2938 8.40796 16.9329 7.22776C16.5719 6.04756 15.9351 4.97027 15.0752 4.08503C14.2152 3.1998 13.1569 2.53206 11.9876 2.13708C10.8184 1.74209 9.57185 1.63121 8.35124 1.81361C7.13063 1.99601 5.971 2.46645 4.9683 3.186C3.9656 3.90555 3.14865 4.85352 2.58506 5.95149C2.02147 7.04945 1.72743 8.26584 1.72727 9.5ZM9.5 17.2727C7.71568 17.2754 5.98523 16.6616 4.60145 15.5351C5.15844 14.7377 5.89979 14.0867 6.76244 13.6374C7.62509 13.1881 8.5835 12.9539 9.55614 12.9545C10.5166 12.9538 11.4635 13.1822 12.318 13.6208C13.1725 14.0594 13.91 14.6955 14.4694 15.4764C13.0748 16.6394 11.3159 17.2753 9.5 17.2727Z" fill="white"/>
</svg>
