<svg width="16" height="16" viewBox="0 0 16 16" fill="none" xmlns="http://www.w3.org/2000/svg">
<path fill-rule="evenodd" clip-rule="evenodd" d="M4 1.33333C3.64638 1.33333 3.30724 1.4738 3.05719 1.72385C2.80714 1.9739 2.66667 2.31304 2.66667 2.66666V3.33333C2.48986 3.33333 2.32029 3.40357 2.19526 3.52859C2.07024 3.65361 2 3.82318 2 3.99999C2 4.17681 2.07024 4.34637 2.19526 4.4714C2.32029 4.59642 2.48986 4.66666 2.66667 4.66666V5.99999C2.48986 5.99999 2.32029 6.07023 2.19526 6.19526C2.07024 6.32028 2 6.48985 2 6.66666C2 6.84347 2.07024 7.01304 2.19526 7.13807C2.32029 7.26309 2.48986 7.33333 2.66667 7.33333V8.66666C2.48986 8.66666 2.32029 8.7369 2.19526 8.86192C2.07024 8.98695 2 9.15652 2 9.33333C2 9.51014 2.07024 9.67971 2.19526 9.80473C2.32029 9.92976 2.48986 9.99999 2.66667 9.99999V11.3333C2.48986 11.3333 2.32029 11.4036 2.19526 11.5286C2.07024 11.6536 2 11.8232 2 12C2 12.1768 2.07024 12.3464 2.19526 12.4714C2.32029 12.5964 2.48986 12.6667 2.66667 12.6667V13.3333C2.66667 13.6869 2.80714 14.0261 3.05719 14.2761C3.30724 14.5262 3.64638 14.6667 4 14.6667H12C12.3536 14.6667 12.6928 14.5262 12.9428 14.2761C13.1929 14.0261 13.3333 13.6869 13.3333 13.3333V2.66666C13.3333 2.31304 13.1929 1.9739 12.9428 1.72385C12.6928 1.4738 12.3536 1.33333 12 1.33333H4ZM5.66667 3.99999C5.40145 3.99999 5.1471 4.10535 4.95956 4.29289C4.77202 4.48042 4.66667 4.73478 4.66667 4.99999V5.66666C4.66667 5.93188 4.77202 6.18623 4.95956 6.37377C5.1471 6.5613 5.40145 6.66666 5.66667 6.66666H10.3333C10.5985 6.66666 10.8529 6.5613 11.0404 6.37377C11.228 6.18623 11.3333 5.93188 11.3333 5.66666V4.99999C11.3333 4.73478 11.228 4.48042 11.0404 4.29289C10.8529 4.10535 10.5985 3.99999 10.3333 3.99999H5.66667Z" fill="#575757"/>
</svg>
