<svg width="12" height="8" viewBox="0 0 12 8" fill="none" xmlns="http://www.w3.org/2000/svg">
<path d="M8 2.66667L11.0353 1.14933C11.1369 1.09856 11.2499 1.07459 11.3633 1.0797C11.4768 1.08481 11.5871 1.11883 11.6837 1.17854C11.7804 1.23824 11.8602 1.32165 11.9155 1.42085C11.9709 1.52004 11.9999 1.63174 12 1.74533V6.25467C11.9999 6.36826 11.9709 6.47996 11.9155 6.57915C11.8602 6.67835 11.7804 6.76176 11.6837 6.82146C11.5871 6.88117 11.4768 6.91519 11.3633 6.9203C11.2499 6.92541 11.1369 6.90144 11.0353 6.85067L8 5.33333V2.66667ZM0 1.33333C0 0.979711 0.140476 0.640573 0.390524 0.390524C0.640573 0.140476 0.979711 0 1.33333 0H6.66667C7.02029 0 7.35943 0.140476 7.60948 0.390524C7.85952 0.640573 8 0.979711 8 1.33333V6.66667C8 7.02029 7.85952 7.35943 7.60948 7.60948C7.35943 7.85952 7.02029 8 6.66667 8H1.33333C0.979711 8 0.640573 7.85952 0.390524 7.60948C0.140476 7.35943 0 7.02029 0 6.66667V1.33333Z" fill="#575757"/>
</svg>
