<svg width="10" height="10" viewBox="0 0 10 10" fill="none" xmlns="http://www.w3.org/2000/svg">
<path d="M7.15385 1H2.84615C1.82655 1 1 1.82655 1 2.84615V7.15385C1 8.17345 1.82655 9 2.84615 9H7.15385C8.17345 9 9 8.17345 9 7.15385V2.84615C9 1.82655 8.17345 1 7.15385 1Z" stroke="#575757" stroke-width="0.9" stroke-linejoin="round"/>
<path d="M7.63295 2.93756C7.14851 2.59309 6.27191 2.14285 5 2.14285C3.72808 2.14285 2.85149 2.59309 2.36704 2.93756C2.23543 3.03115 2.15555 3.161 2.14424 3.29969C2.13293 3.43839 2.19109 3.57509 2.30644 3.68094L2.96636 4.28718C3.04658 4.36055 3.15785 4.40903 3.27995 4.42381C3.40206 4.43859 3.52691 4.41869 3.63183 4.36774C3.94713 4.21575 4.44207 4.03315 5.00039 4.03315C5.55871 4.03315 6.05365 4.21575 6.36896 4.36774C6.47388 4.41869 6.59872 4.43859 6.72083 4.42381C6.84294 4.40903 6.9542 4.36055 7.03443 4.28718L7.69356 3.68094C7.8089 3.57509 7.86706 3.43839 7.85575 3.29969C7.84444 3.161 7.76456 3.03115 7.63295 2.93756Z" stroke="#575757" stroke-width="0.9" stroke-linejoin="round"/>
</svg>
