<svg width="28" height="25" viewBox="0 0 28 25" fill="none" xmlns="http://www.w3.org/2000/svg">
<path d="M10.6931 14.5434C10.6931 14.7956 10.6185 15.0422 10.4786 15.2519C10.3388 15.4616 10.1401 15.625 9.90758 15.7216C9.67506 15.8181 9.41921 15.8433 9.17237 15.7941C8.92554 15.7449 8.6988 15.6235 8.52084 15.4451C8.34288 15.2668 8.22169 15.0396 8.17259 14.7922C8.12349 14.5449 8.14869 14.2885 8.245 14.0554C8.34132 13.8224 8.50441 13.6233 8.71367 13.4832C8.92293 13.343 9.16895 13.2682 9.42062 13.2682C9.7581 13.2682 10.0818 13.4026 10.3204 13.6417C10.559 13.8809 10.6931 14.2052 10.6931 14.5434ZM18.5825 13.2682C18.3308 13.2682 18.0848 13.343 17.8755 13.4832C17.6663 13.6233 17.5032 13.8224 17.4069 14.0554C17.3105 14.2885 17.2853 14.5449 17.3344 14.7922C17.3835 15.0396 17.5047 15.2668 17.6827 15.4451C17.8607 15.6235 18.0874 15.7449 18.3342 15.7941C18.5811 15.8433 18.8369 15.8181 19.0694 15.7216C19.3019 15.625 19.5007 15.4616 19.6405 15.2519C19.7803 15.0422 19.855 14.7956 19.855 14.5434C19.855 14.2052 19.7209 13.8809 19.4823 13.6417C19.2436 13.4026 18.92 13.2682 18.5825 13.2682ZM26.9516 14.6353C26.7163 14.7431 26.4608 14.7992 26.2021 14.7998C25.9671 14.7993 25.7346 14.7512 25.5186 14.6585C25.3025 14.5659 25.1074 14.4304 24.9449 14.2603V20.1543C24.9449 21.4394 24.4354 22.672 23.5286 23.5807C22.6218 24.4895 21.3919 25 20.1094 25H7.89365C6.61121 25 5.3813 24.4895 4.47449 23.5807C3.56767 22.672 3.05823 21.4394 3.05823 20.1543V14.2603C2.89525 14.4301 2.69982 14.5652 2.48361 14.6577C2.26739 14.7502 2.03482 14.798 1.79974 14.7985C1.54148 14.7977 1.28637 14.7417 1.05153 14.634C0.685027 14.4727 0.384396 14.191 0.199306 13.8353C0.0142148 13.4796 -0.0442603 13.0713 0.0335416 12.6778L2.12295 1.45616C2.16774 1.21688 2.26088 0.989316 2.39666 0.787446C2.53243 0.585576 2.70798 0.413667 2.91249 0.282288C3.11701 0.150909 3.34618 0.062835 3.58591 0.023481C3.82564 -0.0158731 4.07087 -0.00567597 4.30653 0.0534456L4.33707 0.0623719L11.057 2.04657H16.9461L23.6635 0.0687477L23.694 0.0598214C23.9297 0.00069989 24.1749 -0.00949728 24.4146 0.0298568C24.6544 0.0692109 24.8835 0.157285 25.0881 0.288664C25.2926 0.420043 25.4681 0.591952 25.6039 0.793822C25.7397 0.995692 25.8328 1.22326 25.8776 1.46253L27.967 12.6842C28.044 13.0766 27.9854 13.4836 27.8008 13.8382C27.6162 14.1928 27.3167 14.4739 26.9516 14.6353ZM9.65985 3.22867L3.9286 1.53649C3.89633 1.5289 3.86285 1.52804 3.83023 1.53396C3.79761 1.53988 3.76656 1.55246 3.739 1.57092C3.70987 1.58984 3.6849 1.61454 3.66565 1.64348C3.64639 1.67243 3.63324 1.70502 3.62702 1.73925L1.53761 12.9609C1.52679 13.0171 1.53516 13.0754 1.56137 13.1263C1.58759 13.1771 1.63013 13.2177 1.68214 13.2414C1.73415 13.2651 1.79261 13.2706 1.8481 13.2569C1.9036 13.2433 1.9529 13.2114 1.98807 13.1662L9.65985 3.22867ZM23.4179 20.1543V12.3029L16.6814 3.5768H11.3217L4.5852 12.3029V20.1543C4.5852 21.0336 4.93377 21.8769 5.55422 22.4987C6.17468 23.1205 7.01619 23.4698 7.89365 23.4698H13.2381V21.4907L11.426 19.6748C11.2912 19.5298 11.2178 19.3379 11.2213 19.1397C11.2247 18.9415 11.3049 18.7524 11.4448 18.6122C11.5846 18.472 11.7734 18.3917 11.9712 18.3882C12.169 18.3847 12.3604 18.4583 12.5051 18.5934L14.0015 20.0918L15.498 18.5934C15.6427 18.4583 15.8341 18.3847 16.0319 18.3882C16.2297 18.3917 16.4185 18.472 16.5583 18.6122C16.6982 18.7524 16.7783 18.9415 16.7818 19.1397C16.7853 19.3379 16.7119 19.5298 16.577 19.6748L14.765 21.4907V23.4698H20.1094C20.9869 23.4698 21.8284 23.1205 22.4489 22.4987C23.0693 21.8769 23.4179 21.0336 23.4179 20.1543ZM26.4718 12.9622L24.3824 1.74052C24.3761 1.70652 24.3628 1.67418 24.3436 1.64546C24.3243 1.61674 24.2994 1.59225 24.2705 1.57347C24.2139 1.53841 24.1461 1.52611 24.0809 1.53904L18.3547 3.22612L26.0303 13.1726C26.0669 13.214 26.1159 13.2423 26.17 13.2533C26.224 13.2643 26.2802 13.2574 26.33 13.2337C26.3798 13.21 26.4206 13.1707 26.4461 13.1217C26.4717 13.0727 26.4807 13.0167 26.4718 12.9622Z" fill="white" fill-opacity="0.8"/>
</svg>
