<svg width="30" height="27" viewBox="0 0 30 27" fill="none" xmlns="http://www.w3.org/2000/svg">
<path d="M11.4183 26.7897C14.0412 25.7949 13.4665 23.0519 12.1403 21.3181C10.8288 19.5416 9.01639 18.3193 7.1892 17.1397C5.88523 16.3475 4.72114 15.3591 3.74111 14.212C3.32852 13.743 2.4886 12.8761 3.34326 12.7056C4.21265 12.535 5.71566 13.3593 6.4819 13.672C7.82282 14.212 9.14901 14.8374 10.3868 15.5764L11.8751 13.1604C9.57634 11.6965 6.62925 10.4032 3.88847 10.0195C2.32651 9.7921 0.676144 10.1048 0.145669 11.7391C-0.325864 13.1461 0.425642 14.5673 1.2803 15.6759C3.29905 18.2767 6.43769 19.5273 8.78063 21.7729C9.28163 22.2418 9.88578 22.7961 10.1805 23.4499C10.4899 24.0752 10.4163 24.1178 9.72369 24.1178C7.8965 24.1178 5.61251 22.7393 4.12423 21.8297L2.63596 24.2457C4.89047 25.5817 8.66274 27.6709 11.4183 26.7897ZM24.9896 7.57502L16.6346 15.6332H13.2602V12.3787L21.6152 4.30625L24.9896 7.57502ZM29.9996 6.46648C29.9849 6.89284 29.5281 7.33341 29.0566 7.77399L25.3432 11.3696L24.0613 10.1332L27.8925 6.45227L27.0231 5.61376L26.0358 6.56596L22.6614 3.31141L25.8295 0.255817C26.1832 -0.0852723 26.7578 -0.0852723 27.0968 0.255817L29.2039 2.28814C29.5576 2.6008 29.5576 3.16929 29.2039 3.51037C28.8945 3.80883 28.5998 4.09307 28.5998 4.37731C28.5703 4.66155 28.865 4.97422 29.1597 5.21582C29.587 5.64218 30.0144 6.04012 29.9996 6.46648Z" fill="#575757"/>
</svg>
