<svg width="88" height="88" viewBox="0 0 88 88" fill="none" xmlns="http://www.w3.org/2000/svg">
<path d="M70.5268 58.1202C70.7688 56.3486 69.5408 54.732 67.784 54.5094C66.0273 54.2868 64.407 55.5425 64.1651 57.3141C63.9232 59.0857 65.1512 60.7023 66.9079 60.9249C68.6647 61.1475 70.2849 59.8917 70.5268 58.1202Z" fill="#939598"/>
<path d="M18.049 37.0803C17.0405 35.6237 15.0405 35.2802 13.5818 36.313C12.1232 37.3457 11.7582 39.3637 12.7667 40.8202C13.7752 42.2768 15.7752 42.6203 17.2338 41.5875C18.6925 40.5548 19.0574 38.5368 18.049 37.0803Z" fill="#E6E7E8"/>
<path d="M73.3823 46.5848C72.3739 45.1283 70.3739 44.7847 68.9152 45.8175C67.4566 46.8503 67.0916 48.8682 68.1001 50.3248C69.1086 51.7813 71.1086 52.1248 72.5672 51.0921C74.0259 50.0593 74.3908 48.0413 73.3823 46.5848Z" fill="#808285"/>
<path d="M18.51 48.1636C18.1902 46.4113 16.5169 45.2686 14.7727 45.6114C13.0284 45.9542 11.8737 47.6526 12.1934 49.4049C12.5132 51.1572 14.1865 52.2999 15.9307 51.9571C17.675 51.6143 18.8297 49.9159 18.51 48.1636Z" fill="#D1D3D4"/>
<path d="M74.0113 38.6742C74.0602 36.8889 72.6629 35.4188 70.8902 35.3908C69.1176 35.3627 67.6409 36.7872 67.592 38.5725C67.543 40.3578 68.9404 41.8278 70.713 41.8559C72.4857 41.884 73.9624 40.4595 74.0113 38.6742Z" fill="#808285"/>
<path d="M20.8618 55.6489C19.5839 54.4264 17.5512 54.4903 16.3218 55.7916C15.0924 57.093 15.1317 59.139 16.4097 60.3615C17.6876 61.584 19.7203 61.5201 20.9497 60.2188C22.1791 58.9174 22.1398 56.8714 20.8618 55.6489Z" fill="#D1D3D4"/>
<path d="M70.61 30.2175C71.0791 28.4901 70.0731 26.7234 68.363 26.2715C66.6528 25.8196 64.8862 26.8535 64.417 28.5809C63.9478 30.3083 64.9538 32.075 66.664 32.5269C68.3741 32.9788 70.1408 31.9448 70.61 30.2175Z" fill="#6D6E71"/>
<path d="M27.343 63.4106C26.212 62.049 24.1879 61.8816 22.8221 63.0367C21.4563 64.1918 21.266 66.2319 22.397 67.5935C23.5281 68.9551 25.5521 69.1225 26.9179 67.9674C28.2838 66.8123 28.4741 64.7722 27.343 63.4106Z" fill="#BCBEC0"/>
<path d="M63.9399 20.0623C62.9472 18.5947 60.9513 18.2293 59.4818 19.2463C58.0123 20.2632 57.6258 22.2774 58.6184 23.745C59.611 25.2126 61.607 25.5779 63.0764 24.561C64.5459 23.5441 64.9325 21.5299 63.9399 20.0623Z" fill="#6D6E71"/>
<path d="M36.2166 68.9858C35.4767 67.372 33.5705 66.6833 31.9589 67.4474C30.3472 68.2116 29.6405 70.1393 30.3804 71.753C31.1203 73.3667 33.0265 74.0555 34.6381 73.2913C36.2497 72.5272 36.9564 70.5995 36.2166 68.9858Z" fill="#BCBEC0"/>
<path d="M55.7691 15.6521C55.0292 14.0384 53.123 13.3497 51.5113 14.1138C49.8997 14.878 49.193 16.8056 49.9329 18.4194C50.6727 20.0331 52.579 20.7218 54.1906 19.9577C55.8022 19.1935 56.5089 17.2659 55.7691 15.6521Z" fill="#414042"/>
<path d="M46.0571 72.6031C46.3973 70.8468 45.2622 69.1623 43.5219 68.8405C41.7815 68.5188 40.0948 69.6817 39.7546 71.438C39.4144 73.1943 40.5494 74.8789 42.2898 75.2006C44.0302 75.5224 45.7168 74.3594 46.0571 72.6031Z" fill="#A7A9AC"/>
<path d="M46.0964 13.8625C45.2804 12.2872 43.3425 11.6914 41.7681 12.5318C40.1937 13.3722 39.579 15.3306 40.395 16.906C41.2111 18.4813 43.1489 19.0771 44.7233 18.2367C46.2977 17.3963 46.9125 15.4379 46.0964 13.8625Z" fill="#414042"/>
<path d="M55.5907 69.2219C55.044 67.53 53.2332 66.6211 51.5463 67.1917C49.8593 67.7624 48.9351 69.5965 49.4818 71.2884C50.0286 72.9803 51.8394 73.8892 53.5263 73.3185C55.2132 72.7479 56.1375 70.9138 55.5907 69.2219Z" fill="#A7A9AC"/>
<path d="M64.2209 65.5495C64.3859 63.7699 63.0884 62.2096 61.3228 62.0645C59.5572 61.9194 57.992 63.2445 57.827 65.0241C57.6619 66.8037 58.9594 68.364 60.725 68.5091C62.4907 68.6542 64.0558 67.3291 64.2209 65.5495Z" fill="#939598"/>
</svg>
