<svg width="9" height="9" viewBox="0 0 9 9" fill="none" xmlns="http://www.w3.org/2000/svg">
<path d="M3.58735 1.37967C3.58612 1.68463 3.67477 1.98243 3.84112 2.23631H3.23438H3.18438V2.28631V3.92381H1.58203H1.58197C1.29843 3.92413 1.02659 4.03691 0.826098 4.23741C0.625602 4.4379 0.512822 4.70974 0.5125 4.99328V4.99334L0.5125 8.15624L0.5125 8.1563C0.512682 8.31867 0.577266 8.47434 0.692082 8.58916C0.806898 8.70398 0.96257 8.76856 1.12494 8.76874H1.125H7.875H7.87506C8.03743 8.76856 8.1931 8.70398 8.30792 8.58916C8.42273 8.47434 8.48732 8.31867 8.4875 8.1563V8.15624V4.99336V4.9933C8.48718 4.70976 8.3744 4.43792 8.1739 4.23742C7.97341 4.03693 7.70157 3.92415 7.41803 3.92383H7.41797L4.55135 0.1885C4.92144 0.437494 5.15134 0.894015 5.15134 1.37987C5.1526 1.68604 5.06026 1.98477 4.88744 2.23633H4.94765M3.58735 1.37967L3.63735 1.37987H3.58735C3.58735 1.37981 3.58735 1.37974 3.58735 1.37967ZM3.58735 1.37967C3.58742 0.879023 3.82412 0.406243 4.20943 0.147018L4.23734 0.188485L4.20944 0.147014L4.36642 0.0413731L4.39434 0.0225893L4.42225 0.0413717L4.57926 0.147015C4.96452 0.40622 5.20131 0.879062 5.20134 1.37977C5.20258 1.68469 5.11396 1.98246 4.94765 2.23633M4.94765 2.23633C4.9366 2.25319 4.92521 2.26986 4.91348 2.28633H5.43437H5.48438V2.33633V3.92383H5.53438V3.97383L4.94765 2.23633ZM6.36328 5.36974L6.38347 5.37865L7.0442 5.67019L6.36328 5.36974ZM6.36328 5.36974L6.3431 5.37864M6.36328 5.36974L6.3431 5.37864M6.3431 5.37864L5.68221 5.67018C5.61429 5.70006 5.54091 5.71549 5.46671 5.71549C5.39251 5.71549 5.31913 5.70006 5.25121 5.67018L4.5905 5.37863L4.57032 5.36972M6.3431 5.37864L4.57032 5.36972M4.57032 5.36972L4.55013 5.37863M4.57032 5.36972L4.55013 5.37863M4.55013 5.37863L3.88923 5.67016C3.82132 5.70005 3.74794 5.71548 3.67374 5.71548C3.59954 5.71548 3.52616 5.70005 3.45825 5.67016L2.79753 5.37865L2.77734 5.36974M4.55013 5.37863L2.77734 5.36974M2.77734 5.36974L2.75716 5.37864M2.77734 5.36974L2.75716 5.37864M2.75716 5.37864L2.09639 5.67016C2.02848 5.70005 1.95509 5.71548 1.88089 5.71548C1.8067 5.71548 1.73331 5.70005 1.6654 5.67016L1.175 5.45383L1.175 4.99341C1.175 4.9934 1.175 4.99338 1.175 4.99337C1.175 4.99336 1.175 4.99336 1.175 4.99336C1.17514 4.88545 1.21807 4.782 1.29437 4.7057M2.75716 5.37864L1.29437 4.7057M1.29437 4.7057C1.37069 4.62938 1.47416 4.58645 1.58209 4.58633H7.41791M1.29437 4.7057L7.41791 4.58633M7.41791 4.58633C7.52584 4.58645 7.62931 4.62938 7.70563 4.7057C7.78195 4.78201 7.82488 4.88549 7.825 4.99341M7.41791 4.58633L7.825 4.99341M7.825 4.99341V5.51583L7.47518 5.67019L7.825 4.99341ZM7.25969 5.7155C7.33386 5.7155 7.40723 5.70008 7.47513 5.67021L7.25969 5.7155ZM7.25969 5.7155C7.18551 5.7155 7.11214 5.70008 7.04425 5.67021L7.25969 5.7155ZM3.23438 3.97381H3.18438L3.23438 3.92381V3.97381ZM7.74259 6.27634L7.82522 6.23989L7.82535 8.10624H1.175V6.17794L1.39799 6.27632L1.39803 6.27634C1.55019 6.3433 1.71462 6.37787 1.88086 6.37787C2.0471 6.37787 2.21153 6.3433 2.36369 6.27634L2.36373 6.27632L2.77734 6.09384L3.19097 6.27632L3.19102 6.27634C3.34318 6.3433 3.5076 6.37787 3.67384 6.37787C3.84008 6.37787 4.0045 6.3433 4.15666 6.27634L4.1567 6.27632L4.57031 6.09384L4.9839 6.27632L4.98395 6.27634C5.13611 6.3433 5.30053 6.37787 5.46676 6.37787C5.633 6.37787 5.79742 6.3433 5.94957 6.27634L5.94962 6.27632L6.36328 6.09384L6.77689 6.27634L6.77694 6.27636C6.92909 6.34331 7.09351 6.37788 7.25974 6.37788C7.42597 6.37788 7.59039 6.34331 7.74254 6.27636L7.74259 6.27634ZM4.24985 1.37987C4.24985 1.19555 4.3029 1.02159 4.39434 0.884938C4.48579 1.02159 4.53884 1.19558 4.53884 1.37989C4.53884 1.56421 4.48579 1.73821 4.39434 1.87485C4.3029 1.73821 4.24985 1.5642 4.24985 1.37987ZM3.84687 2.89883H4.87187V3.92383H3.84687V2.89883Z" fill="#575757" stroke="#575757" stroke-width="0.1"/>
</svg>
