<svg width="25" height="25" viewBox="0 0 25 25" fill="none" xmlns="http://www.w3.org/2000/svg">
<path d="M12.2143 24.2269C18.8486 24.2269 24.2269 18.8487 24.2269 12.2143C24.2269 5.57991 18.8486 0.201691 12.2143 0.201691C5.57988 0.201691 0.20166 5.57991 0.20166 12.2143C0.20166 18.8487 5.57988 24.2269 12.2143 24.2269Z" fill="#8BD4C7"/>
<path d="M12.2143 24.4286C5.47888 24.4286 0 18.9497 0 12.2143C0 5.47888 5.47888 0 12.2143 0C18.9497 0 24.4286 5.47888 24.4286 12.2143C24.4286 18.9497 18.9497 24.4286 12.2143 24.4286ZM12.2143 0.403378C5.70175 0.403378 0.403378 5.70175 0.403378 12.2143C0.403378 18.7268 5.70175 24.0252 12.2143 24.0252C18.7268 24.0252 24.0252 18.7268 24.0252 12.2143C24.0252 5.70175 18.7268 0.403378 12.2143 0.403378Z" fill="black"/>
<path d="M18.4283 18.9315C18.5503 19.0697 18.7198 15.5532 18.8307 15.7731L17.5419 13.5918L17.436 13.1148L18.0572 12.2798C18.6068 12.6308 18.9971 12.4755 19.2421 12.2506C19.4347 12.0741 19.5346 11.823 19.5648 11.5628C19.5921 11.3208 19.6899 11.0989 19.7716 10.9497C19.8331 10.8367 19.9158 10.7379 20.0126 10.6512C22.1354 8.75027 20.3504 7.01877 20.3504 7.01877C19.471 6.30479 18.7369 5.44156 18.7369 5.44156C17.7083 4.41295 16.7906 4.419 16.3953 4.48656C16.2602 4.50976 16.121 4.46639 16.0191 4.37463C14.6174 3.1181 12.4745 3.1181 12.4745 3.1181H12.1649C12.1649 3.1181 10.0209 3.1181 8.62018 4.37463C8.51731 4.46639 8.37916 4.50976 8.24403 4.48656C7.84972 4.419 6.93204 4.41295 5.90242 5.44156C5.90242 5.44156 5.16827 6.30479 4.28891 7.01877C4.28891 7.01877 2.50497 8.75027 4.62673 10.6512C4.72254 10.7369 4.80624 10.8357 4.86775 10.9497C4.94944 11.0989 5.04726 11.3208 5.07448 11.5628C5.10373 11.823 5.20457 12.0731 5.39719 12.2506C5.64526 12.4785 6.0436 12.6348 6.60631 12.2637L6.93809 13.3266L5.81367 15.765C5.92561 15.5482 6.091 19.0687 6.21201 18.9315H18.4283Z" fill="white"/>
<path d="M5.70074 16.2692L5.81469 15.765C5.72696 15.9365 5.6725 16.1139 5.70074 16.2692Z" fill="black"/>
<path d="M18.8317 15.7741L18.9416 16.2692C18.9698 16.117 18.9174 15.9425 18.8317 15.7741Z" fill="black"/>
<path d="M19.1373 12.2445C19.1373 12.2445 19.4912 11.7917 19.4912 11.1514L20.8204 9.37752V7.79628L19.5628 6.40967L17.9886 4.85162L16.6877 4.43009L16.1744 4.63178L15.4877 4.03781L14.3108 3.65762C14.3108 3.65762 11.827 5.49299 13.9579 7.75897C14.1444 7.95763 14.2806 8.19663 14.2755 8.46992C14.2564 9.44811 14.5327 11.7746 17.4037 12.9343L17.553 12.4815L18.2539 12.3938L18.745 12.4603L19.1363 12.2455L19.1373 12.2445Z" fill="#444444"/>
<path d="M18.1994 15.7267C18.0764 15.6047 17.8969 15.5603 17.7315 15.6127C16.7361 15.9284 13.2782 17.0881 12.2627 18.2327C11.2452 17.0881 7.6924 15.9294 6.69808 15.6127C6.53269 15.5603 6.35319 15.6037 6.23016 15.7267L5.69165 16.2632L12.2062 18.9305L18.7379 16.2632L18.1994 15.7267Z" fill="#FFEEBE"/>
<path d="M5.88931 22.3653C7.74788 23.5442 9.95234 24.2269 12.3161 24.2269C14.6799 24.2269 16.9883 23.5109 18.8741 22.2806L18.9436 21.975L19.1786 16.483C19.1937 16.3126 19.0233 16.1875 18.865 16.2531L12.7417 18.7954C12.4684 18.9083 12.1618 18.9083 11.8886 18.7954L5.80057 16.2642C5.6372 16.1966 5.46274 16.3328 5.48896 16.5082L5.87822 22.2937L5.8883 22.3663L5.88931 22.3653Z" fill="#127B65"/>
<path d="M5.9246 20.5549L5.91351 20.4339L7.42618 20.7021C8.26621 19.3165 6.88061 19.1259 5.79552 19.1632L5.62409 17.3138C5.62409 17.3138 3.32382 17.6254 3.23206 19.8046C3.23206 19.8046 4.01461 21.6501 5.81468 22.2985C6.689 22.6131 7.43828 21.9667 7.63795 21.7479C7.76401 21.6107 7.80737 21.4131 7.73577 21.2406C7.45341 20.5559 5.9246 20.5559 5.9246 20.5559V20.5549Z" fill="white"/>
<path d="M18.993 17.313L18.8216 19.1625C17.7365 19.1241 16.3499 19.3157 17.1909 20.7013L18.7056 20.42L18.6935 20.5551C18.6935 20.5551 17.1637 20.5551 16.8823 21.2399C16.8117 21.4123 16.8551 21.61 16.9802 21.7471C17.1798 21.9659 17.6316 22.3199 18.5473 22.4782C18.5473 22.4782 20.3504 21.5918 21.2055 20.1749C22.1857 18.5513 18.995 17.313 18.995 17.313H18.993Z" fill="white"/>
<path d="M18.5645 12.6822C18.3335 12.6822 18.0592 12.6025 17.7456 12.3777C17.6942 12.3373 16.6696 11.5033 17.0629 9.912C17.0689 9.89083 17.4844 8.30757 16.5042 7.16097C16.4316 7.07626 16.4417 6.94919 16.5264 6.87659C16.6111 6.80398 16.7382 6.81406 16.8108 6.89877C17.9322 8.21076 17.4733 9.94125 17.4532 10.0139C17.1234 11.3511 17.9796 12.0479 17.9886 12.055C18.385 12.3383 18.7177 12.3534 19.0001 12.0943C19.1796 11.9299 19.2401 11.698 19.2583 11.5326C19.2895 11.2553 19.4005 11.0062 19.4882 10.8448C19.5578 10.7178 19.6526 10.5988 19.7716 10.4929C20.4029 9.92713 20.7296 9.32711 20.7437 8.70893C20.7629 7.85579 20.1709 7.2245 20.1084 7.16097C19.2583 6.46917 18.5564 5.65738 18.4828 5.57065C17.5066 4.59851 16.6474 4.6217 16.3237 4.67717C16.1291 4.71045 15.9304 4.65196 15.7791 4.51582C14.454 3.32787 12.3898 3.31173 12.3686 3.31073H12.059C12.0388 3.31073 9.97453 3.32686 8.64842 4.51582C8.49715 4.65095 8.29849 4.70944 8.10386 4.67717C7.78015 4.6217 6.92096 4.59851 5.94478 5.57065C5.87016 5.65738 5.16828 6.46917 4.31917 7.16097C4.25765 7.22349 3.66569 7.85478 3.68385 8.70893C3.69796 9.32711 4.0247 9.92713 4.65599 10.4929C4.77498 10.5998 4.86978 10.7178 4.93936 10.8448C5.0271 11.0052 5.13802 11.2553 5.16929 11.5326C5.18845 11.698 5.24794 11.9299 5.42745 12.0943C5.7088 12.3524 6.04058 12.3383 6.44194 12.0529C6.50951 11.9965 7.29509 11.3117 6.97339 10.0088C6.95423 9.94125 6.49539 8.21076 7.61779 6.89877C7.6904 6.81406 7.81746 6.80398 7.90217 6.87659C7.98688 6.94919 7.99697 7.07626 7.92436 7.16097C6.94415 8.30757 7.35963 9.89184 7.36366 9.90696C7.75796 11.5033 6.73338 12.3363 6.69002 12.3706C5.92864 12.9172 5.40224 12.6177 5.15517 12.3908C4.94037 12.1941 4.80725 11.9128 4.76893 11.578C4.74473 11.3652 4.65599 11.1675 4.5854 11.0384C4.538 10.9517 4.47144 10.869 4.38673 10.7944C3.66771 10.15 3.29459 9.45014 3.28047 8.71397C3.25929 7.63998 4.01058 6.89877 4.04285 6.86751L4.05596 6.85541C4.91012 6.1616 5.63519 5.31249 5.64326 5.30341L5.65435 5.29131C6.76565 4.18101 7.78519 4.21429 8.17244 4.27984C8.24504 4.29194 8.32168 4.26875 8.38017 4.21631C9.82225 2.92348 11.9682 2.90836 12.06 2.90836H12.3696C12.4603 2.90836 14.6073 2.92348 16.0494 4.21631C16.1079 4.26875 16.1845 4.29194 16.2571 4.27984C16.6434 4.21429 17.6639 4.18101 18.7752 5.29131L18.7863 5.30341C18.7934 5.31148 19.5195 6.1616 20.3736 6.85541L20.3867 6.86751C20.419 6.89877 21.1703 7.64099 21.1491 8.71397C21.134 9.45014 20.7619 10.15 20.0428 10.7944C19.9581 10.87 19.8916 10.9517 19.8442 11.0384C19.7736 11.1675 19.6848 11.3662 19.6606 11.578C19.6223 11.9128 19.4892 12.1941 19.2744 12.3908C19.1302 12.5229 18.8902 12.6802 18.5655 12.6802L18.5645 12.6822Z" fill="black"/>
<path d="M7.87698 14.1192C7.8316 14.1192 7.78622 14.1041 7.74891 14.0729C7.06821 13.5132 6.41675 12.3615 6.38952 12.3121C6.33507 12.2153 6.36935 12.0923 6.46617 12.0378C6.56298 11.9834 6.68601 12.0176 6.74046 12.1144C6.74651 12.1255 7.38284 13.249 8.00505 13.7612C8.09077 13.8318 8.10388 13.9589 8.03228 14.0446C7.99194 14.093 7.93446 14.1182 7.87597 14.1182L7.87698 14.1192Z" fill="black"/>
<path d="M5.59384 16.4639C5.49804 16.4639 5.41333 16.3963 5.39619 16.2985C5.31954 15.887 5.65838 15.4 5.95587 15.0641C6.1747 14.8161 6.34312 14.5589 6.45505 14.2987C6.78179 13.5384 6.7354 12.8284 6.7354 12.8214C6.72733 12.7104 6.81103 12.6136 6.92196 12.6056C7.0339 12.5985 7.1297 12.6812 7.13777 12.7921C7.13979 12.8254 7.19122 13.6079 6.82616 14.4581C6.69708 14.7576 6.50648 15.051 6.25841 15.3314C5.93671 15.6944 5.75822 16.0373 5.79351 16.2249C5.81368 16.3348 5.74107 16.4397 5.63216 16.4598C5.62006 16.4618 5.60695 16.4629 5.59485 16.4629L5.59384 16.4639Z" fill="black"/>
<path d="M16.5516 14.1192C16.4931 14.1192 16.4356 14.094 16.3953 14.0456C16.3247 13.9599 16.3368 13.8328 16.4225 13.7622C17.0447 13.2499 17.6801 12.1265 17.6871 12.1154C17.7416 12.0186 17.8646 11.9843 17.9614 12.0388C18.0582 12.0933 18.0925 12.2163 18.038 12.3131C18.0108 12.3615 17.3594 13.5131 16.6787 14.0738C16.6414 14.1051 16.596 14.1202 16.5506 14.1202L16.5516 14.1192Z" fill="black"/>
<path d="M18.8347 16.4639C18.8226 16.4639 18.8105 16.4629 18.7974 16.4608C18.6875 16.4407 18.6159 16.3348 18.6361 16.2259C18.6714 16.0383 18.4929 15.6954 18.1712 15.3324C17.9231 15.052 17.7325 14.7586 17.6034 14.4591C17.2384 13.61 17.2888 12.8264 17.2918 12.7931C17.2999 12.6822 17.3967 12.6005 17.5076 12.6066C17.6186 12.6146 17.7023 12.7104 17.6942 12.8224C17.6942 12.8365 17.6508 13.5484 17.9745 14.2997C18.0865 14.5599 18.2539 14.8171 18.4737 15.0652C18.7712 15.401 19.109 15.888 19.0334 16.2995C19.0153 16.3963 18.9305 16.4649 18.8357 16.4649L18.8347 16.4639Z" fill="black"/>
<path d="M3.19476 19.9985C3.19476 19.9985 3.18871 19.9985 3.18568 19.9985C3.07475 19.9934 2.98803 19.8996 2.99307 19.7887C3.09089 17.4673 5.53435 17.1093 5.55956 17.1063C5.67049 17.0911 5.77133 17.1688 5.78646 17.2787C5.80159 17.3886 5.72394 17.4905 5.61402 17.5056C5.60897 17.5056 5.0624 17.5853 4.51683 17.914C3.80789 18.3416 3.43073 18.9779 3.39544 19.8059C3.3914 19.9148 3.30165 19.9995 3.19375 19.9995L3.19476 19.9985Z" fill="black"/>
<path d="M7.38883 20.896C7.35354 20.896 7.31723 20.8869 7.28395 20.8667C7.18916 20.8092 7.1579 20.6852 7.21639 20.5894C7.45136 20.2022 7.50581 19.9117 7.37875 19.7262C7.051 19.2472 5.55851 19.3117 4.69528 19.464C4.58536 19.4831 4.48149 19.4105 4.46132 19.3006C4.44216 19.1907 4.51476 19.0868 4.62469 19.0666C4.87982 19.0213 7.13067 18.6502 7.71154 19.4983C7.93642 19.826 7.886 20.2637 7.56128 20.7992C7.52296 20.8617 7.4564 20.896 7.38883 20.896Z" fill="black"/>
<path d="M6.03352 22.6729C5.93772 22.6729 5.852 22.6033 5.83486 22.5055C5.8157 22.3955 5.88931 22.2917 5.99923 22.2725C6.86952 22.1212 7.28298 21.7885 7.45139 21.6039C7.52703 21.5202 7.55123 21.4052 7.5119 21.3094C7.32433 20.8536 6.24832 20.7498 5.8873 20.7498C5.77637 20.7498 5.68561 20.659 5.68561 20.5481C5.68561 20.4371 5.77637 20.3464 5.8873 20.3464C6.05772 20.3464 7.56132 20.3696 7.88503 21.1562C7.98385 21.3952 7.93041 21.6785 7.74989 21.8762C7.50182 22.1485 7.00768 22.5075 6.06882 22.6698C6.05672 22.6718 6.04562 22.6729 6.03453 22.6729H6.03352Z" fill="black"/>
<path d="M21.3478 19.9985C21.2399 19.9985 21.1511 19.9138 21.1461 19.8048C21.1118 18.9779 20.7346 18.3416 20.0247 17.913C19.4801 17.5842 18.9336 17.5056 18.9275 17.5046C18.8176 17.4894 18.7399 17.3876 18.7551 17.2777C18.7702 17.1678 18.871 17.0901 18.982 17.1052C19.0062 17.1083 21.4506 17.4663 21.5484 19.7877C21.5535 19.8986 21.4668 19.9934 21.3558 19.9975C21.3528 19.9975 21.3498 19.9975 21.3468 19.9975L21.3478 19.9985Z" fill="black"/>
<path d="M17.1537 20.896C17.0851 20.896 17.0185 20.8617 16.9812 20.7992C16.6565 20.2647 16.6061 19.827 16.831 19.4983C17.4118 18.6502 19.6627 19.0223 19.9178 19.0667C20.0277 19.0858 20.1003 19.1907 20.0812 19.3006C20.062 19.4105 19.9571 19.4831 19.8472 19.464C18.983 19.3107 17.4905 19.2472 17.1637 19.7262C17.0367 19.9117 17.0911 20.2022 17.3261 20.5894C17.3836 20.6842 17.3533 20.8082 17.2585 20.8667C17.2263 20.8869 17.19 20.896 17.1537 20.896Z" fill="black"/>
<path d="M18.509 22.6729C18.4979 22.6729 18.4858 22.6729 18.4747 22.6698C17.5358 22.5065 17.0417 22.1485 16.7936 21.8762C16.6131 21.6785 16.5597 21.3952 16.6585 21.1562C16.9822 20.3696 18.4858 20.3464 18.6562 20.3464C18.7672 20.3464 18.8579 20.4361 18.8579 20.5481C18.8579 20.659 18.7682 20.7498 18.6562 20.7498C18.2942 20.7498 17.2192 20.8536 17.0316 21.3094C16.9923 21.4052 17.0165 21.5202 17.0921 21.6039C17.2605 21.7885 17.674 22.1212 18.5443 22.2725C18.6542 22.2917 18.7278 22.3955 18.7087 22.5055C18.6915 22.6033 18.6068 22.6729 18.51 22.6729H18.509Z" fill="black"/>
<path d="M5.7774 19.2845C5.67958 19.2845 5.59285 19.2129 5.57772 19.1131L5.18846 16.5375C5.16527 16.3822 5.22477 16.2319 5.34881 16.1351C5.47184 16.0383 5.63218 16.0171 5.7774 16.0766L11.8654 18.6078C12.0872 18.7006 12.3414 18.7006 12.5632 18.6078L18.6865 16.0655C18.8267 16.007 18.983 16.0262 19.105 16.116C19.227 16.2057 19.2916 16.3489 19.2785 16.5002L19.0435 19.0999C19.0334 19.2109 18.9346 19.2916 18.8247 19.2825C18.7137 19.2724 18.632 19.1746 18.6421 19.0636L18.8771 16.4639C18.8771 16.4639 18.8781 16.4498 18.867 16.4417C18.8559 16.4336 18.8458 16.4377 18.8418 16.4387L12.7185 18.9809C12.3988 19.1141 12.0308 19.1141 11.7111 18.9809L5.6231 16.4498C5.6231 16.4498 5.60898 16.4437 5.59789 16.4528C5.58579 16.4619 5.58781 16.4729 5.58882 16.477L5.97808 19.0525C5.99522 19.1625 5.91858 19.2653 5.80866 19.2825C5.79857 19.2845 5.78849 19.2845 5.7784 19.2845H5.7774Z" fill="black"/>
<path d="M11.828 24.4285C11.7171 24.4285 11.6263 24.3378 11.6263 24.2269V19.7231C11.6263 19.6122 11.7171 19.5215 11.828 19.5215C11.939 19.5215 12.0297 19.6122 12.0297 19.7231V24.2269C12.0297 24.3378 11.939 24.4285 11.828 24.4285Z" fill="black"/>
<path d="M12.2143 18.4787C12.1568 18.4787 12.0993 18.4535 12.059 18.4061C11.3249 17.5237 8.78055 16.484 6.64466 15.8053C6.55088 15.7751 6.45004 15.8003 6.38045 15.8699L5.84194 16.4064C5.76328 16.485 5.63521 16.485 5.55655 16.4064C5.47789 16.3277 5.47789 16.1996 5.55655 16.121L6.09506 15.5845C6.27154 15.408 6.52869 15.3455 6.76669 15.4211C7.82959 15.759 11.3743 16.953 12.3686 18.148C12.4402 18.2337 12.4281 18.3607 12.3424 18.4323C12.3051 18.4636 12.2587 18.4787 12.2133 18.4787H12.2143Z" fill="black"/>
<path d="M12.2325 18.4787C12.1871 18.4787 12.1417 18.4636 12.1034 18.4323C12.0177 18.3607 12.0056 18.2337 12.0772 18.148C13.0715 16.953 16.6162 15.759 17.6791 15.4211C17.9171 15.3455 18.1742 15.408 18.3507 15.5845L18.8892 16.121C18.9679 16.1996 18.9679 16.3277 18.8892 16.4064C18.8105 16.485 18.6825 16.485 18.6038 16.4064L18.0653 15.8699C17.9957 15.8003 17.8949 15.7761 17.8011 15.8053C15.6652 16.484 13.1209 17.5227 12.3878 18.4061C12.3474 18.4545 12.2909 18.4787 12.2325 18.4787Z" fill="black"/>
<path d="M10.03 10.1278C10.5285 10.1278 10.9326 9.72371 10.9326 9.22524C10.9326 8.72677 10.5285 8.32268 10.03 8.32268C9.53153 8.32268 9.12744 8.72677 9.12744 9.22524C9.12744 9.72371 9.53153 10.1278 10.03 10.1278Z" fill="black"/>
<path d="M10.2629 9.3765C10.4579 9.3765 10.6159 9.21848 10.6159 9.02355C10.6159 8.82862 10.4579 8.67059 10.2629 8.67059C10.068 8.67059 9.90997 8.82862 9.90997 9.02355C9.90997 9.21848 10.068 9.3765 10.2629 9.3765Z" fill="white"/>
<path d="M14.5448 10.1278C15.0432 10.1278 15.4473 9.72371 15.4473 9.22524C15.4473 8.72677 15.0432 8.32268 14.5448 8.32268C14.0463 8.32268 13.6422 8.72677 13.6422 9.22524C13.6422 9.72371 14.0463 10.1278 14.5448 10.1278Z" fill="black"/>
<path d="M14.3118 9.3765C14.5068 9.3765 14.6648 9.21848 14.6648 9.02355C14.6648 8.82862 14.5068 8.67059 14.3118 8.67059C14.1169 8.67059 13.9589 8.82862 13.9589 9.02355C13.9589 9.21848 14.1169 9.3765 14.3118 9.3765Z" fill="white"/>
<path d="M11.7756 11.1514H12.8486C13.1209 11.1514 13.3428 11.3722 13.3428 11.6455V11.6556C13.3428 11.828 13.253 11.9874 13.1068 12.0771L12.5965 12.3897C12.4432 12.4835 12.2506 12.4865 12.0933 12.3968L11.5306 12.0751C11.3763 11.9874 11.2815 11.824 11.2815 11.6465C11.2815 11.3742 11.5023 11.1524 11.7756 11.1524V11.1514Z" fill="black"/>
<path d="M10.993 14.1031C10.9638 14.1031 10.9345 14.1031 10.9053 14.1001C10.4596 14.0739 10.0663 13.848 9.7345 13.4295C9.66491 13.3417 9.68004 13.2157 9.76677 13.1461C9.85349 13.0765 9.98056 13.0916 10.0501 13.1784C10.3073 13.5021 10.6028 13.6765 10.9275 13.6967C11.5759 13.734 12.1638 13.1663 12.1699 13.1602C12.2496 13.0815 12.3766 13.0826 12.4553 13.1622C12.5339 13.2419 12.5329 13.369 12.4543 13.4466C12.426 13.4738 11.7837 14.1021 10.993 14.1021V14.1031Z" fill="black"/>
<path d="M12.3121 13.5061C12.2012 13.5061 12.1104 13.4153 12.1104 13.3044V12.3091C12.1104 12.1981 12.2012 12.1074 12.3121 12.1074C12.423 12.1074 12.5138 12.1981 12.5138 12.3091V13.3044C12.5138 13.4153 12.423 13.5061 12.3121 13.5061Z" fill="black"/>
<path d="M13.5888 14.1031C12.7891 14.1031 12.1981 13.4708 12.1739 13.4446C12.0983 13.3629 12.1043 13.2348 12.186 13.1592C12.2677 13.0835 12.3958 13.0896 12.4704 13.1713C12.4785 13.1804 12.9706 13.6997 13.5888 13.6997H13.5968C13.9528 13.6967 14.2917 13.5202 14.6043 13.1723C14.6789 13.0896 14.806 13.0825 14.8887 13.1572C14.9714 13.2318 14.9784 13.3589 14.9038 13.4415C14.5105 13.8772 14.0708 14.1001 13.5958 14.1021H13.5878L13.5888 14.1031Z" fill="black"/>
<path d="M12.7367 24.3933C12.6257 24.3933 12.535 24.3025 12.535 24.1916V22.4772C12.535 22.3663 12.6257 22.2755 12.7367 22.2755C12.8476 22.2755 12.9384 22.3663 12.9384 22.4772V24.1916C12.9384 24.3025 12.8476 24.3933 12.7367 24.3933Z" fill="black"/>
<path d="M12.2143 24.4286C5.47888 24.4286 0 18.9497 0 12.2143C0 5.47888 5.47888 0 12.2143 0C18.9497 0 24.4286 5.47888 24.4286 12.2143C24.4286 18.9497 18.9497 24.4286 12.2143 24.4286ZM12.2143 0.403378C5.70175 0.403378 0.403378 5.70175 0.403378 12.2143C0.403378 18.7268 5.70175 24.0252 12.2143 24.0252C18.7268 24.0252 24.0252 18.7268 24.0252 12.2143C24.0252 5.70175 18.7268 0.403378 12.2143 0.403378Z" fill="black"/>
</svg>
