<svg width="70" height="64" viewBox="0 0 70 64" fill="none" xmlns="http://www.w3.org/2000/svg">
<path d="M38.6693 15.9088C38.6693 15.9088 45.6257 3.90455 60.0477 0.905426C65.6108 6.98077 64.6596 26.3042 61.513 34.4997C58.3638 42.6979 38.6693 15.9088 38.6693 15.9088Z" fill="#DCC198"/>
<path d="M59.4744 36.9617C57.9397 36.9617 55.973 35.962 53.4897 33.9163C51.4639 32.2484 49.0757 29.8764 46.397 26.8644C41.8596 21.7631 37.9803 16.4973 37.9417 16.4433C37.7284 16.1529 37.7078 15.7674 37.8878 15.4564C37.9623 15.3305 39.7336 12.3031 43.3275 8.87738C45.4355 6.86768 47.7389 5.13554 50.1708 3.73235C53.2172 1.97194 56.4795 0.722943 59.8626 0.018778C60.1737 -0.0454706 60.4976 0.0573272 60.7135 0.293762C64.2972 4.20779 64.9064 12.3751 64.9501 16.8956C65.0144 23.5132 63.9964 30.5497 62.3562 34.821C61.7598 36.3732 60.6981 36.8255 59.914 36.9309C59.7726 36.9489 59.6261 36.9592 59.477 36.9592L59.4744 36.9617ZM39.7618 15.8651C40.8261 17.2811 44.073 21.5344 47.7543 25.672C55.6954 34.5974 58.7315 35.2681 59.6698 35.1422C59.9757 35.1011 60.3665 34.9546 60.6673 34.1759C62.2329 30.1 63.2046 23.323 63.1429 16.9162C63.0761 10.0133 61.8318 4.59585 59.7109 1.90255C52.7365 3.48306 47.6438 7.25831 44.5743 10.1855C41.9958 12.6423 40.3994 14.8988 39.7644 15.8651H39.7618Z" fill="black"/>
<path d="M43.9856 16.5512C43.9856 16.5512 48.4304 8.21176 57.6492 6.12753C61.2046 10.3474 60.5979 23.7728 58.585 29.4678C56.572 35.1628 43.9856 16.5512 43.9856 16.5512Z" fill="#FFFCF3"/>
<path d="M31.6357 15.9088C31.6357 15.9088 24.6818 3.90455 10.2572 0.905426C4.69411 6.98077 5.64529 26.3042 8.7919 34.4997C11.9411 42.6979 31.6357 15.9088 31.6357 15.9088Z" fill="#DCC198"/>
<path d="M10.3935 36.9335C9.6094 36.8281 8.54768 36.3758 7.95126 34.8235C6.31112 30.5523 5.2931 23.5158 5.35737 16.8982C5.40107 12.3776 6.01033 4.20779 9.59397 0.296334C9.80992 0.0624686 10.1313 -0.0428991 10.4449 0.0213495C13.828 0.725514 17.0903 1.97451 20.1367 3.73492C22.5712 5.14068 24.872 6.87025 26.98 8.87995C30.5739 12.3057 32.3452 15.3305 32.4198 15.459C32.5997 15.77 32.5791 16.158 32.3658 16.4459C32.3272 16.4973 28.4454 21.7656 23.9105 26.867C21.2318 29.879 18.8436 32.2536 16.8178 33.9189C14.3319 35.9646 12.3678 36.9643 10.8331 36.9643C10.684 36.9643 10.5374 36.954 10.3961 36.936L10.3935 36.9335ZM25.7332 10.1855C22.6637 7.25831 17.571 3.48306 10.5966 1.90255C8.4757 4.59328 7.23145 10.0107 7.16461 16.9162C7.10291 23.3256 8.07466 30.1 9.64025 34.1759C9.93846 34.9546 10.3292 35.1011 10.6377 35.1422C11.576 35.2681 14.6147 34.5974 22.5532 25.672C26.2345 21.5318 29.4814 17.2811 30.5457 15.8651C29.9107 14.8988 28.3143 12.6423 25.7358 10.1855H25.7332Z" fill="black"/>
<path d="M26.3193 16.5512C26.3193 16.5512 21.8745 8.21176 12.6557 6.12753C9.10035 10.3474 9.70705 23.7728 11.72 29.4678C13.7329 35.1628 26.3193 16.5512 26.3193 16.5512Z" fill="#FFFCF3"/>
<path d="M69.0274 47.4548C66.85 50.2278 63.6108 54.2626 59.95 56.4213C54.0373 59.9088 47.4047 62.7511 35.1551 62.7511C22.9054 62.7511 16.2728 59.9062 10.3601 56.4213C6.69931 54.2626 3.46015 50.2278 1.28271 47.4548C1.7943 46.2109 2.65036 44.8232 2.6375 44.1242C2.62208 43.3223 1.93312 41.2098 2.01538 40.3823C4.054 39.2053 5.72499 36.4529 6.42937 34.9289C6.61704 34.5228 6.7353 34.2042 6.77643 34.0243C8.09523 28.0235 8.02068 24.1069 16.296 17.4456C20.458 14.0944 25.2062 12.5781 28.8978 11.8971C32.5457 11.2237 35.1602 11.3702 35.1602 11.3702C35.1602 11.3702 45.7517 10.7843 54.0244 17.4456C62.2971 24.1069 62.2252 28.0235 63.5439 34.0243C63.7316 34.8775 65.7214 38.8918 68.3024 40.3823C68.3847 41.2098 67.6932 43.3223 67.6803 44.1242C67.6675 44.8232 68.5209 46.2109 69.0351 47.4548H69.0274Z" fill="#DCC198"/>
<path d="M67.6726 44.1242C67.688 43.3224 68.377 41.2099 68.2947 40.3823C66.2561 39.2053 64.5851 36.4529 63.8807 34.9289C63.4154 36.3527 62.7085 38.1876 61.9244 39.0742C60.5439 40.6393 58.896 41.7264 58.1916 39.8709C57.4872 38.0129 56.6003 38.974 55.5566 39.799C54.5129 40.6213 51.0912 43.2298 47.3379 41.6005C43.5871 39.9711 39.2451 37.9769 38.6693 27.877C38.3325 21.9713 39.9855 15.9139 41.4174 11.8996C37.7695 11.2263 35.155 11.3728 35.155 11.3728C35.155 11.3728 32.538 11.2289 28.8927 11.8996C30.3246 15.9139 31.975 21.9713 31.6408 27.877C31.065 37.9769 26.7255 39.9711 22.9722 41.6005C19.2189 43.2298 15.7972 40.6213 14.7535 39.799C13.7098 38.9766 12.8229 38.0154 12.1185 39.8709C11.4141 41.729 9.76622 40.6393 8.38573 39.0742C7.60164 38.1876 6.89468 36.3501 6.42937 34.9289C5.72498 36.4529 4.054 39.2053 2.01538 40.3823C1.93312 41.2099 2.62465 43.3224 2.6375 44.1242C2.65036 44.8232 1.79687 46.211 1.28271 47.4548C3.46015 50.2278 6.69931 54.2626 10.3601 56.4214C16.2728 59.9088 22.9054 62.7511 35.155 62.7511C47.4047 62.7511 54.0373 59.9062 59.95 56.4214C63.6108 54.2626 66.8499 50.2278 69.0274 47.4548C68.5158 46.211 67.6597 44.8232 67.6726 44.1242Z" fill="#FFFCF3"/>
<path opacity="0.24" d="M35.1525 60.0296C18.7202 60.0296 10.2804 56.1644 6.00262 52.6487C6.37796 53.2398 6.83298 53.8026 7.37284 54.3371C11.846 58.7369 22.3604 62.7511 34.6332 62.7511H34.6615C34.826 62.7511 34.9879 62.7511 35.1525 62.7511C35.3144 62.7511 35.479 62.7511 35.6435 62.7511H35.6718C47.9446 62.7511 58.4564 58.7369 62.9321 54.3371C63.4745 53.8052 63.927 53.2398 64.3023 52.6487C60.0246 56.1644 51.5848 60.0296 35.1525 60.0296Z" fill="black"/>
<path d="M35.1524 63.6558C29.4068 63.6558 24.4889 63.0364 20.1238 61.7617C15.7766 60.4921 12.5143 58.742 9.8973 57.2001C8.19803 56.1978 6.46791 54.756 4.60411 52.79C3.06165 51.1632 1.712 49.4722 0.565437 48.0151C0.364918 47.7581 0.316076 47.4137 0.439473 47.113C0.624567 46.6658 0.843078 46.2161 1.05388 45.7818C1.30324 45.2652 1.72486 44.4043 1.72743 44.1422C1.72228 43.8826 1.58346 43.2684 1.46006 42.7236C1.24926 41.7881 1.04874 40.904 1.10787 40.295C1.13615 40.0045 1.30325 39.7476 1.55518 39.6011C3.88429 38.2544 5.74552 34.4637 5.88434 33.8315C6.0283 33.1736 6.15684 32.5389 6.28024 31.9221C7.30083 26.8644 8.10548 22.8707 15.7175 16.7414C17.6738 15.1686 19.9156 13.8579 22.3809 12.8505C24.345 12.0461 26.4556 11.4319 28.6536 11.0233C32.1678 10.368 34.7514 10.4502 35.1499 10.4682C35.5483 10.4502 38.132 10.3705 41.6462 11.0233C43.8442 11.4319 45.9548 12.0487 47.9188 12.8505C50.3842 13.8579 52.6259 15.1686 54.5822 16.7414C62.1943 22.8682 62.9989 26.8644 64.0195 31.9221C64.1429 32.5363 64.2714 33.1736 64.4154 33.8315C64.5542 34.4637 66.4155 38.2544 68.7446 39.6011C68.9965 39.7476 69.1636 40.0045 69.1919 40.295C69.251 40.904 69.0531 41.7881 68.8397 42.7236C68.7163 43.2658 68.5775 43.88 68.5723 44.1422C68.5749 44.4043 68.9939 45.2652 69.2459 45.7818C69.4567 46.2161 69.6752 46.6658 69.8603 47.113C69.9837 47.4137 69.9374 47.7581 69.7343 48.0151C68.5878 49.4722 67.2381 51.1632 65.6956 52.79C63.8344 54.756 62.1017 56.1978 60.4024 57.2001C57.7854 58.7446 54.5231 60.4921 50.176 61.7617C45.8108 63.0364 40.8955 63.6558 35.1473 63.6558H35.1524ZM2.32384 47.3212C4.19792 49.6984 7.38566 53.6201 10.8176 55.6427C17.134 59.3665 23.6894 61.8491 35.155 61.8491C46.6206 61.8491 53.176 59.3691 59.4924 55.6427C62.9218 53.6201 66.1121 49.6984 67.9862 47.3212C67.8705 47.0719 67.7471 46.8175 67.6263 46.5682C67.161 45.6122 66.7599 44.7872 66.7728 44.1088C66.7805 43.6616 66.9219 43.0422 67.0839 42.3226C67.1841 41.8832 67.3178 41.2844 67.3769 40.8655C66.0453 39.9403 64.963 38.5294 64.2663 37.4577C63.3871 36.1085 62.783 34.7824 62.6596 34.2196C62.513 33.5463 62.3819 32.9038 62.256 32.2819C61.2714 27.399 60.5593 23.8704 53.4563 18.1523C49.3302 14.8294 44.5794 13.4082 41.3223 12.8017C37.7875 12.1438 35.2321 12.2749 35.2064 12.2749C35.173 12.2749 35.1396 12.2749 35.1062 12.2749C35.0805 12.2749 32.484 12.1438 28.9389 12.8094C25.6972 13.4185 20.967 14.8397 16.8563 18.1497C9.75333 23.8679 9.04124 27.3964 8.05664 32.2793C7.93067 32.9012 7.80213 33.5463 7.65302 34.217C7.52963 34.7799 6.9255 36.1059 6.0463 37.4552C5.34705 38.5294 4.26733 39.9377 2.93568 40.8629C2.99224 41.2844 3.12849 41.8832 3.22875 42.3201C3.39071 43.0397 3.5321 43.659 3.53981 44.1062C3.55266 44.7846 3.15162 45.6096 2.68631 46.5656C2.56549 46.8149 2.44209 47.0693 2.32641 47.3186L2.32384 47.3212Z" fill="black"/>
<path d="M55.428 45.7175C57.5449 45.7175 59.261 44.743 59.261 43.5408C59.261 42.3386 57.5449 41.364 55.428 41.364C53.3111 41.364 51.595 42.3386 51.595 43.5408C51.595 44.743 53.3111 45.7175 55.428 45.7175Z" fill="#FF8D76"/>
<path d="M14.8769 45.7175C16.9938 45.7175 18.7099 44.743 18.7099 43.5408C18.7099 42.3386 16.9938 41.364 14.8769 41.364C12.76 41.364 11.0439 42.3386 11.0439 43.5408C11.0439 44.743 12.76 45.7175 14.8769 45.7175Z" fill="#FF8D76"/>
<path d="M39.677 39.6422C39.641 38.7993 37.1088 37.4423 35.1524 37.4423C33.1961 37.4423 30.6665 38.7993 30.6279 39.6422C30.5919 40.4851 32.4686 42.5745 35.1524 43.0885C37.8363 42.5745 39.713 40.4851 39.677 39.6422Z" fill="black"/>
<path d="M42.3994 35.6973C42.3249 35.6973 42.2477 35.687 42.1732 35.6639C41.7593 35.5406 41.5228 35.1011 41.6487 34.6848C41.6667 34.6282 42.0729 33.2996 43.2837 32.0737C44.3969 30.9429 46.4226 29.6734 49.7569 30.0383C50.1888 30.0846 50.4973 30.4726 50.451 30.9044C50.4048 31.3361 50.0166 31.6445 49.5847 31.5983C47.4381 31.3618 45.708 31.8784 44.4483 33.1274C43.4894 34.0783 43.1552 35.1294 43.1501 35.1396C43.0472 35.4789 42.7362 35.6973 42.3994 35.6973Z" fill="black"/>
<path d="M27.9055 35.6948C27.5687 35.6948 27.2577 35.4763 27.1548 35.1396C27.1471 35.1139 26.8103 34.0731 25.8566 33.1274C24.5943 31.8758 22.8668 31.3618 20.7202 31.5983C20.2883 31.6445 19.9027 31.3336 19.8539 30.9044C19.8076 30.4726 20.1187 30.0871 20.548 30.0383C23.8822 29.6734 25.908 30.9429 27.0211 32.0737C28.2294 33.3021 28.6382 34.6308 28.6562 34.6848C28.7795 35.0985 28.5456 35.538 28.1291 35.6613C28.0546 35.6845 27.9775 35.6948 27.9029 35.6948H27.9055Z" fill="black"/>
<path d="M43.6103 44.4942C43.6025 44.2167 43.3712 43.9982 43.0961 44.0034C42.8185 44.0111 42.5999 44.2398 42.6051 44.5174C42.6051 44.5611 42.6848 48.9223 40.1526 51.5179C38.9109 52.79 37.2296 53.4351 35.1525 53.4351C33.0753 53.4351 31.3966 52.7926 30.1549 51.523C27.633 48.9428 27.6973 44.5816 27.6998 44.5199C27.7075 44.2424 27.4864 44.0111 27.2088 44.006C26.9312 43.9982 26.6998 44.2193 26.6947 44.4968C26.6947 44.5456 26.6689 45.7201 26.9852 47.2518C27.4093 49.3 28.2551 51.0193 29.4299 52.2246C30.867 53.6972 32.7925 54.4451 35.1525 54.4451C37.5124 54.4451 39.4353 53.6972 40.875 52.2246C42.0498 51.0219 42.8956 49.3026 43.3198 47.2518C43.6385 45.7201 43.6128 44.5456 43.6103 44.4968V44.4942Z" fill="black"/>
<path d="M44.7182 42.1813C44.4611 42.0759 44.1681 42.1993 44.0627 42.4563C44.0498 42.4845 42.8236 45.3809 39.4302 45.3809C39.4173 45.3809 39.4019 45.3809 39.389 45.3809C35.9262 45.3577 35.6923 43.1424 35.6846 43.0474V43.0525C35.6666 42.8058 35.4712 42.6053 35.2193 42.5873C34.9416 42.5668 34.7025 42.7775 34.682 43.0525C34.682 43.0756 34.4789 45.3577 30.9775 45.3809C30.9621 45.3809 30.9492 45.3809 30.9364 45.3809C29.5302 45.3809 28.3296 44.8977 27.3682 43.9468C26.6303 43.2195 26.3116 42.4717 26.3039 42.4563C26.1985 42.1993 25.9054 42.0785 25.6483 42.1839C25.3912 42.2892 25.2678 42.5822 25.3732 42.8392C25.3887 42.8752 25.7563 43.7567 26.6278 44.6304C27.4299 45.4323 28.8258 46.3857 30.9364 46.3857C30.9518 46.3857 30.9698 46.3857 30.9852 46.3857C33.2552 46.3703 34.4095 45.5068 34.9802 44.7872C35.0573 44.6921 35.1241 44.5945 35.1858 44.4994C35.2475 44.5945 35.3144 44.6896 35.3915 44.7872C35.9622 45.5068 37.1165 46.3703 39.3865 46.3857C39.4019 46.3857 39.4199 46.3857 39.4353 46.3857C41.5485 46.3857 42.9444 45.4323 43.7439 44.6304C44.6154 43.7567 44.983 42.8752 44.9984 42.8392C45.1038 42.5822 44.9804 42.2892 44.7234 42.1839L44.7182 42.1813Z" fill="black"/>
<path d="M42.5562 45.5531C42.4354 46.8483 42.0344 49.115 40.7027 50.878C40.5356 51.1016 40.3531 51.3149 40.1551 51.5179C38.9135 52.79 37.2322 53.4351 35.1524 53.4351C33.0727 53.4351 31.3966 52.79 30.1549 51.523C29.9544 51.3174 29.7718 51.1016 29.6022 50.878C28.2628 49.0996 27.8643 46.8072 27.7487 45.5171C28.543 46.0028 29.5945 46.3857 30.9338 46.3857H30.9827C33.2527 46.3703 34.4069 45.5068 34.9776 44.7872C35.0548 44.6896 35.1216 44.5945 35.1833 44.4994C35.245 44.5945 35.3118 44.6896 35.389 44.7872C35.9597 45.5068 37.1139 46.3703 39.3839 46.3857H39.4328C40.7387 46.3857 41.7721 46.0208 42.5588 45.5531H42.5562Z" fill="black"/>
<path d="M40.7027 50.878C40.5356 51.1016 40.3531 51.3149 40.1551 51.5179C38.9135 52.79 37.2322 53.4351 35.1524 53.4351C33.0727 53.4351 31.3966 52.79 30.1549 51.523C29.9544 51.3174 29.7718 51.1016 29.6022 50.878C30.8516 49.7189 32.8722 48.9685 35.1524 48.9685C37.4327 48.9685 39.4533 49.7215 40.7027 50.8805V50.878Z" fill="#FF8D76"/>
<path d="M42.5228 27.4966C42.3891 27.4966 42.2554 27.4427 42.1552 27.3373C41.9649 27.1343 41.9752 26.8182 42.1783 26.628C42.2092 26.5997 42.929 25.9341 44.1989 25.4432C45.3609 24.9935 47.2324 24.608 49.5487 25.3148C49.8135 25.397 49.9626 25.6771 49.8829 25.9418C49.8006 26.2065 49.5204 26.3556 49.2556 26.2759C45.3583 25.0835 42.8878 27.3373 42.8647 27.3604C42.767 27.4504 42.6436 27.4966 42.5228 27.4966Z" fill="#5E4934"/>
<path d="M27.7821 27.4966C27.6587 27.4966 27.5379 27.4529 27.4402 27.363C27.4325 27.3578 26.8026 26.7822 25.7023 26.3658C24.237 25.8107 22.6714 25.7825 21.0493 26.2785C20.7845 26.3607 20.5043 26.2091 20.422 25.9444C20.3397 25.6797 20.4914 25.3996 20.7562 25.3173C23.0724 24.608 24.944 24.9961 26.1059 25.4458C27.3759 25.9367 28.0957 26.6023 28.1266 26.6306C28.3297 26.8207 28.3399 27.1368 28.1497 27.3399C28.052 27.4452 27.9183 27.4992 27.7821 27.4992V27.4966Z" fill="#5E4934"/>
</svg>
