<svg width="70" height="64" viewBox="0 0 70 64" fill="none" xmlns="http://www.w3.org/2000/svg">
<path d="M38.2971 15.9088C38.2971 15.9088 45.2535 3.90455 59.6755 0.905426C65.2386 6.98077 64.2874 26.3042 61.1408 34.4997C57.9916 42.6979 38.2971 15.9088 38.2971 15.9088Z" fill="#DCC198"/>
<path d="M59.1048 36.9617C57.5701 36.9617 55.6034 35.962 53.1201 33.9163C51.0943 32.2484 48.7061 29.8764 46.0273 26.8644C41.49 21.7631 37.6107 16.4973 37.5721 16.4433C37.3587 16.1529 37.3382 15.7674 37.5181 15.4564C37.5927 15.3305 39.3639 12.3031 42.9579 8.87738C45.0659 6.86768 47.3693 5.13554 49.8012 3.73235C52.8476 1.97194 56.1073 0.722943 59.493 0.018778C59.8041 -0.0454706 60.128 0.0573272 60.3439 0.293762C63.9275 4.20779 64.5368 12.3751 64.5805 16.8956C64.6448 23.5132 63.6268 30.5497 61.9866 34.821C61.3902 36.3732 60.3285 36.8255 59.5444 36.9309C59.403 36.9489 59.2565 36.9592 59.1074 36.9592L59.1048 36.9617ZM39.3922 15.8651C40.4565 17.2811 43.7034 21.5344 47.3847 25.672C55.3258 34.5974 58.3619 35.2681 59.3002 35.1422C59.6061 35.1011 59.9969 34.9546 60.2976 34.1759C61.8632 30.1 62.835 23.323 62.7733 16.9162C62.7064 10.0133 61.4622 4.59585 59.3413 1.90255C52.3668 3.48306 47.2742 7.25831 44.2047 10.1855C41.6262 12.6423 40.0298 14.8988 39.3948 15.8651H39.3922Z" fill="black"/>
<path d="M43.616 16.5512C43.616 16.5512 48.0608 8.21176 57.2796 6.12753C60.8349 10.3474 60.2282 23.7728 58.2153 29.4678C56.2024 35.1628 43.616 16.5512 43.616 16.5512Z" fill="#FFFCF3"/>
<path d="M31.266 15.9088C31.266 15.9088 24.3096 3.90455 9.8876 0.905426C4.32448 6.98077 5.27566 26.3042 8.42227 34.4997C11.5714 42.6979 31.266 15.9088 31.266 15.9088Z" fill="#DCC198"/>
<path d="M10.0213 36.9335C9.23718 36.8281 8.17546 36.3758 7.57904 34.8235C5.9389 30.5523 4.92087 23.5158 4.98514 16.8982C5.02885 12.3776 5.63812 4.20779 9.22176 0.296334C9.4377 0.0624686 9.75904 -0.0428991 10.0727 0.0213495C13.4558 0.725514 16.7181 1.97451 19.7644 3.73492C22.199 5.14068 24.4998 6.87025 26.6078 8.87995C30.2017 12.3057 31.973 15.3305 32.0475 15.459C32.2275 15.77 32.2069 16.158 31.9935 16.4459C31.955 16.4973 28.0731 21.7656 23.5383 26.867C20.8596 29.879 18.4714 32.2536 16.4456 33.9189C13.9597 35.9646 11.9956 36.9643 10.4609 36.9643C10.3118 36.9643 10.1652 36.954 10.0238 36.936L10.0213 36.9335ZM25.361 10.1855C22.2915 7.25831 17.1988 3.48306 10.2244 1.90255C8.10348 4.59328 6.85923 10.0107 6.79239 16.9162C6.73069 23.3256 7.70244 30.1 9.26803 34.1759C9.56624 34.9546 9.95699 35.1011 10.2655 35.1422C11.2038 35.2681 14.2424 34.5974 22.181 25.672C25.8623 21.5318 29.1092 17.2811 30.1734 15.8651C29.5385 14.8988 27.942 12.6423 25.3636 10.1855H25.361Z" fill="black"/>
<path d="M25.9471 16.5512C25.9471 16.5512 21.5023 8.21176 12.2835 6.12753C8.72819 10.3474 9.33489 23.7728 11.3478 29.4678C13.3607 35.1628 25.9471 16.5512 25.9471 16.5512Z" fill="#FFFCF3"/>
<path d="M68.6552 47.4548C66.4777 50.2278 63.2386 54.2626 59.5778 56.4213C53.6651 59.9088 47.0325 62.7511 34.7828 62.7511C22.5332 62.7511 15.9006 59.9062 9.98785 56.4213C6.32708 54.2626 3.08793 50.2278 0.910492 47.4548C1.42207 46.2109 2.27814 44.8232 2.26528 44.1242C2.24986 43.3223 1.56089 41.2098 1.64316 40.3823C3.68177 39.2053 5.35276 36.4529 6.05715 34.9289C6.24482 34.5228 6.36307 34.2042 6.40421 34.0243C7.72301 28.0235 7.64845 24.1069 15.9237 17.4456C20.0858 14.0944 24.834 12.5781 28.5256 11.8971C32.1735 11.2237 34.788 11.3702 34.788 11.3702C34.788 11.3702 45.3795 10.7843 53.6522 17.4456C61.9249 24.1069 61.8529 28.0235 63.1717 34.0243C63.3594 34.8775 65.3492 38.8918 67.9302 40.3823C68.0125 41.2098 67.3209 43.3223 67.3081 44.1242C67.2952 44.8232 68.1487 46.2109 68.6629 47.4548H68.6552Z" fill="#DCC198"/>
<path d="M67.3004 44.1242C67.3158 43.3224 68.0048 41.2099 67.9225 40.3823C65.8839 39.2053 64.2129 36.4529 63.5085 34.9289C63.0432 36.3527 62.3362 38.1876 61.5521 39.0742C60.1716 40.6393 58.5238 41.7264 57.8194 39.8709C57.115 38.0129 56.2281 38.974 55.1844 39.799C54.1406 40.6213 50.719 43.2298 46.9656 41.6005C43.2149 39.9711 38.8729 37.9769 38.2971 27.877C37.9603 21.9713 39.6133 15.9139 41.0452 11.8996C37.3973 11.2263 34.7828 11.3728 34.7828 11.3728C34.7828 11.3728 32.1658 11.2289 28.5205 11.8996C29.9524 15.9139 31.6028 21.9713 31.2686 27.877C30.6927 37.9769 26.3533 39.9711 22.6 41.6005C18.8467 43.2298 15.425 40.6213 14.3813 39.799C13.3375 38.9766 12.4506 38.0154 11.7462 39.8709C11.0419 41.729 9.394 40.6393 8.0135 39.0742C7.22942 38.1876 6.52246 36.3501 6.05715 34.9289C5.35276 36.4529 3.68177 39.2053 1.64316 40.3823C1.56089 41.2099 2.25243 43.3224 2.26528 44.1242C2.27814 44.8232 1.42464 46.211 0.910492 47.4548C3.08793 50.2278 6.32708 54.2626 9.98784 56.4214C15.9006 59.9088 22.5331 62.7511 34.7828 62.7511C47.0325 62.7511 53.6651 59.9062 59.5778 56.4214C63.2386 54.2626 66.4777 50.2278 68.6551 47.4548C68.1436 46.211 67.2875 44.8232 67.3004 44.1242Z" fill="#FFFCF3"/>
<path opacity="0.24" d="M34.7802 60.0296C18.3479 60.0296 9.90815 56.1644 5.6304 52.6487C6.00573 53.2398 6.46076 53.8026 7.00062 54.3371C11.4737 58.7369 21.9881 62.7511 34.261 62.7511H34.2892C34.4538 62.7511 34.6157 62.7511 34.7802 62.7511C34.9422 62.7511 35.1067 62.7511 35.2713 62.7511H35.2995C47.5723 62.7511 58.0842 58.7369 62.5599 54.3371C63.1023 53.8052 63.5548 53.2398 63.9301 52.6487C59.6523 56.1644 51.2125 60.0296 34.7802 60.0296Z" fill="black"/>
<path d="M34.7803 63.6558C29.0346 63.6558 24.1167 63.0364 19.7516 61.7617C15.4044 60.4921 12.1421 58.742 9.52511 57.2001C7.82583 56.1978 6.09571 54.756 4.23191 52.79C2.68946 51.1632 1.33981 49.4722 0.193247 48.0151C-0.00727247 47.7581 -0.0561169 47.4137 0.0672795 47.113C0.252374 46.6658 0.470889 46.2161 0.681691 45.7818C0.931055 45.2652 1.35266 44.4043 1.35523 44.1422C1.35009 43.8826 1.21127 43.2684 1.08787 42.7236C0.877069 41.7881 0.67655 40.904 0.735677 40.295C0.763955 40.0045 0.931055 39.7476 1.18299 39.6011C3.5121 38.2544 5.37333 34.4637 5.51215 33.8315C5.65611 33.1736 5.78465 32.5389 5.90805 31.9221C6.92864 26.8644 7.73329 22.8707 15.3453 16.7414C17.3017 15.1686 19.5434 13.8579 22.0087 12.8505C23.9728 12.0461 26.0834 11.4319 28.2814 11.0233C31.7956 10.368 34.3792 10.4502 34.7777 10.4682C35.1761 10.4502 37.7598 10.3705 41.274 11.0233C43.472 11.4319 45.5826 12.0487 47.5466 12.8505C50.012 13.8579 52.2537 15.1686 54.2101 16.7414C61.8221 22.8682 62.6267 26.8644 63.6473 31.9221C63.7707 32.5363 63.8992 33.1736 64.0432 33.8315C64.182 34.4637 66.0433 38.2544 68.3724 39.6011C68.6243 39.7476 68.7914 40.0045 68.8197 40.295C68.8788 40.904 68.6809 41.7881 68.4675 42.7236C68.3441 43.2658 68.2053 43.88 68.2001 44.1422C68.2027 44.4043 68.6217 45.2652 68.8737 45.7818C69.0845 46.2161 69.303 46.6658 69.4881 47.113C69.6115 47.4137 69.5652 47.7581 69.3621 48.0151C68.2156 49.4722 66.8659 51.1632 65.3234 52.79C63.4622 54.756 61.7295 56.1978 60.0303 57.2001C57.4132 58.7446 54.1509 60.4921 49.8038 61.7617C45.4386 63.0364 40.5233 63.6558 34.7751 63.6558H34.7803ZM1.95165 47.3212C3.82573 49.6984 7.01347 53.6201 10.4454 55.6427C16.7618 59.3665 23.3172 61.8491 34.7828 61.8491C46.2484 61.8491 52.8038 59.3691 59.1202 55.6427C62.5496 53.6201 65.7399 49.6984 67.614 47.3212C67.4983 47.0719 67.3749 46.8175 67.2541 46.5682C66.7888 45.6122 66.3877 44.7872 66.4006 44.1088C66.4083 43.6616 66.5497 43.0422 66.7117 42.3226C66.8119 41.8832 66.9456 41.2844 67.0047 40.8655C65.6731 39.9403 64.5908 38.5294 63.8941 37.4577C63.0149 36.1085 62.4108 34.7824 62.2874 34.2196C62.1408 33.5463 62.0097 32.9038 61.8838 32.2819C60.8992 27.399 60.1871 23.8704 53.0841 18.1523C48.958 14.8294 44.2072 13.4082 40.9501 12.8017C37.4153 12.1438 34.8599 12.2749 34.8342 12.2749C34.8008 12.2749 34.7674 12.2749 34.734 12.2749C34.7083 12.2749 32.1118 12.1438 28.5667 12.8094C25.325 13.4185 20.5948 14.8397 16.4842 18.1497C9.38114 23.8679 8.66904 27.3964 7.68444 32.2793C7.55847 32.9012 7.42994 33.5463 7.28083 34.217C7.15744 34.7799 6.55331 36.1059 5.67411 37.4552C4.97486 38.5294 3.89514 39.9377 2.56349 40.8629C2.62004 41.2844 2.75629 41.8832 2.85655 42.3201C3.01851 43.0397 3.1599 43.659 3.16762 44.1062C3.18047 44.7846 2.77943 45.6096 2.31412 46.5656C2.1933 46.8149 2.0699 47.0693 1.95422 47.3186L1.95165 47.3212Z" fill="black"/>
<path d="M43.3794 45.1624C43.1326 45.0339 42.8293 45.129 42.7008 45.3757C42.6982 45.3834 42.3434 46.0362 41.6082 46.5708C40.6133 47.2955 39.4179 47.4677 38.058 47.077C35.8754 46.4525 35.3844 44.8926 35.297 43.9417C35.3201 43.6359 35.3124 43.384 35.297 43.2195C35.2995 43.1938 35.3021 43.1759 35.3047 43.1681C35.3484 42.8932 35.1607 42.6362 34.8882 42.5925C34.8497 42.5873 34.8111 42.5848 34.7751 42.5873C34.752 42.5873 34.7263 42.5873 34.7031 42.5925C34.4306 42.6362 34.243 42.8906 34.2841 43.1656C34.2841 43.1733 34.2867 43.1913 34.2918 43.2195C34.279 43.384 34.2712 43.6359 34.2918 43.9417C34.2044 44.8926 33.7134 46.4551 31.5308 47.0796C28.3276 47.9945 26.9471 45.4862 26.888 45.3757C26.7595 45.1316 26.4561 45.0365 26.2093 45.165C25.9625 45.2935 25.8674 45.5967 25.996 45.8435C26.014 45.8794 26.4536 46.7044 27.3867 47.3854C28.0063 47.8377 28.9369 48.2875 30.1786 48.2875C30.6722 48.2875 31.2146 48.2181 31.8059 48.0485C33.4692 47.573 34.3381 46.635 34.7931 45.7612C35.2481 46.635 36.117 47.573 37.7803 48.0485C38.3716 48.2181 38.914 48.2875 39.4076 48.2875C40.6519 48.2875 41.5799 47.8377 42.1995 47.3854C43.1326 46.7044 43.5723 45.8794 43.5902 45.8435C43.7188 45.5967 43.6237 45.2935 43.3769 45.165L43.3794 45.1624Z" fill="black"/>
<path d="M39.3048 39.6422C39.2688 38.7993 36.7366 37.4423 34.7803 37.4423C32.8239 37.4423 30.2943 38.7993 30.2557 39.6422C30.2197 40.4851 32.0964 42.5745 34.7803 43.0885C37.4641 42.5745 39.3408 40.4851 39.3048 39.6422Z" fill="black"/>
<path d="M55.0558 45.7175C57.1727 45.7175 58.8888 44.743 58.8888 43.5408C58.8888 42.3386 57.1727 41.364 55.0558 41.364C52.9389 41.364 51.2228 42.3386 51.2228 43.5408C51.2228 44.743 52.9389 45.7175 55.0558 45.7175Z" fill="#FF8D76"/>
<path d="M14.5073 45.7175C16.6242 45.7175 18.3403 44.743 18.3403 43.5408C18.3403 42.3386 16.6242 41.364 14.5073 41.364C12.3903 41.364 10.6743 42.3386 10.6743 43.5408C10.6743 44.743 12.3903 45.7175 14.5073 45.7175Z" fill="#FF8D76"/>
<path d="M43.1378 34.7464C42.3923 33.5386 42.5337 30.5857 44.6417 29.6862C46.7497 28.7893 48.4644 30.4521 49.0043 31.2513C49.7472 32.3513 50.2151 34.5049 48.4001 35.8798C46.5852 37.2547 44.2921 36.6122 43.1378 34.7439V34.7464Z" fill="black"/>
<path d="M26.4253 34.7464C27.1708 33.5386 27.0294 30.5857 24.9214 29.6862C22.8134 28.7867 21.0987 30.4521 20.5588 31.2513C19.8159 32.3513 19.348 34.5049 21.1629 35.8798C22.9779 37.2547 25.271 36.6122 26.4253 34.7439V34.7464Z" fill="black"/>
<path d="M24.906 32.5029C25.3007 32.5029 25.6207 32.183 25.6207 31.7884C25.6207 31.3939 25.3007 31.074 24.906 31.074C24.5113 31.074 24.1913 31.3939 24.1913 31.7884C24.1913 32.183 24.5113 32.5029 24.906 32.5029Z" fill="white"/>
<path d="M47.431 32.5029C47.8257 32.5029 48.1457 32.183 48.1457 31.7884C48.1457 31.3939 47.8257 31.074 47.431 31.074C47.0363 31.074 46.7163 31.3939 46.7163 31.7884C46.7163 32.183 47.0363 32.5029 47.431 32.5029Z" fill="white"/>
<path d="M42.1506 27.4966C42.017 27.4966 41.8833 27.4427 41.783 27.3373C41.5928 27.1343 41.6031 26.8182 41.8062 26.628C41.837 26.5997 42.5568 25.9341 43.8268 25.4432C44.9888 24.9935 46.8603 24.608 49.1765 25.3148C49.4413 25.397 49.5904 25.6771 49.5107 25.9418C49.4285 26.2065 49.1482 26.3556 48.8835 26.2759C44.9862 25.0835 42.5157 27.3373 42.4925 27.3604C42.3949 27.4504 42.2715 27.4966 42.1506 27.4966Z" fill="#5E4934"/>
<path d="M27.4099 27.4966C27.2865 27.4966 27.1657 27.4529 27.068 27.363C27.0603 27.3578 26.4304 26.7822 25.3301 26.3658C23.8648 25.8107 22.2992 25.7825 20.6771 26.2785C20.4123 26.3607 20.1321 26.2091 20.0498 25.9444C19.9675 25.6797 20.1192 25.3996 20.384 25.3173C22.7003 24.608 24.5718 24.9961 25.7338 25.4458C27.0037 25.9367 27.7235 26.6023 27.7544 26.6306C27.9575 26.8207 27.9677 27.1368 27.7775 27.3399C27.6798 27.4452 27.5461 27.4992 27.4099 27.4992V27.4966Z" fill="#5E4934"/>
</svg>
